<?xml version="1.0" standalone="no"?><!DOCTYPE svg PUBLIC "-//W3C//DTD SVG 1.1//EN" "http://www.w3.org/Graphics/SVG/1.1/DTD/svg11.dtd"><svg t="1601971748732" class="icon" viewBox="0 0 1024 1024" version="1.1" xmlns="http://www.w3.org/2000/svg" p-id="1667" xmlns:xlink="http://www.w3.org/1999/xlink" width="200" height="200"><defs><style type="text/css"></style></defs><path d="M793.6 358.4C768 227.2 652.80000001 128 512 127.99999999s-256 99.2-281.6 230.40000001C134.4 384 64 473.6 64 576c0 124.8 99.2 224 224 224l32 0 0-64-32 0c-89.59999999 0-160-70.40000001-160-160s70.40000001-160 160-160c0-124.8 99.2-224 224-224s224 99.2 224 224c89.59999999 0 160 70.40000001 160 160s-70.40000001 160-160 160l-32 0 0 64 32 0c124.8 0 224-99.2 224-224 0-102.4-70.4-192-166.4-217.6z" fill="" p-id="1668"></path><path d="M483.2 875.73333328c12.8 9.6 25.6 12.8 38.4 6.4 3.2 0 6.4-3.2 9.6-6.4l96-92.8c12.8-12.8 12.8-32 0-44.8-12.8-12.8-35.2-12.8-48 0l-38.4 35.2 0-272c0-19.2-16-32-32-32.00000001-19.2 0-32 16-32 32.00000001L476.8 773.33333328l-38.4-35.2c-12.8-12.8-35.2-12.8-48 0-12.8 12.8-12.8 32 0 44.8l92.8 92.8z" fill="" p-id="1669"></path></svg>