<?xml version="1.0" standalone="no"?><!DOCTYPE svg PUBLIC "-//W3C//DTD SVG 1.1//EN" "http://www.w3.org/Graphics/SVG/1.1/DTD/svg11.dtd"><svg t="1601971740701" class="icon" viewBox="0 0 1024 1024" version="1.1" xmlns="http://www.w3.org/2000/svg" p-id="1376" xmlns:xlink="http://www.w3.org/1999/xlink" width="200" height="200"><defs><style type="text/css"></style></defs><path d="M512 92q178.14 4.68 296.73 123.27T932 512q-4.68 178.14-123.27 296.73T512 932q-178.14-4.68-296.73-123.27T92 512q4.68-178.14 123.27-296.73T512 92z m-52.5 502.5l-92.82-92.82q-11.25-10.32-25.77-10.32t-25.32 10.77-10.77 24.84 10.32 25.32l119.07 119.07q10.32 10.32 25.32 10.32t25.32-10.32l246.57-246.57q14.07-14.07 8.91-34.23t-25.32-25.32-34.23 8.91z" p-id="1377"></path></svg>