<?xml version="1.0" standalone="no"?><!DOCTYPE svg PUBLIC "-//W3C//DTD SVG 1.1//EN" "http://www.w3.org/Graphics/SVG/1.1/DTD/svg11.dtd"><svg t="1601971736503" class="icon" viewBox="0 0 1024 1024" version="1.1" xmlns="http://www.w3.org/2000/svg" p-id="1234" xmlns:xlink="http://www.w3.org/1999/xlink" width="200" height="200"><defs><style type="text/css"></style></defs><path d="M512 90.12500001a421.87499999 421.87499999 0 1 0 421.87499999 421.87499999A421.87499999 421.87499999 0 0 0 512 90.12500001z m26.15625001 671.34375026a45.28125027 45.28125027 0 0 1-61.87499974 0 41.06250029 41.06250029 0 0 1-12.09375054-30.93750028 38.53125027 38.53125027 0 0 1 12.09375054-30.09375026 41.06250029 41.06250029 0 0 1 30.93749945-12.09374974 42.75000027 42.75000027 0 0 1 32.90625001 12.09374974 41.34375001 41.34375001 0 0 1 12.09375055 30.09375026 39.65625001 39.65625001 0 0 1-14.06250027 30.93750028z m103.50000025-287.43750025a712.12499999 712.12499999 0 0 1-58.21874999 56.25000025 147.93749974 147.93749974 0 0 0-33.75 37.96875 100.40625001 100.40625001 0 0 0-13.78125054 52.59374972v16.59375026h-56.24999946v-16.59375026a142.87499973 142.87499973 0 0 1 12.93749972-62.4375 299.81249973 299.81249973 0 0 1 72.5625-84.37499997 319.21874973 319.21874973 0 0 0 24.46875001-25.87500029 89.15625025 89.15625025 0 0 0 21.65625027-56.24999947 90.84375027 90.84375027 0 0 0-24.46875-66.93750053 93.09374971 93.09374971 0 0 0-70.31250055-25.03124946 91.68750027 91.68750027 0 0 0-79.87499945 35.15624946 129.9375 129.9375 0 0 0-23.62499999 82.6875h-56.25000028a168.75000001 168.75000001 0 0 1 42.46874974-120.65625 154.96875027 154.96875027 0 0 1 118.96874999-46.68749973 156.09375001 156.09375001 0 0 1 110.81250054 37.96874998 131.06249974 131.06249974 0 0 1 40.21874946 101.25 135.56250026 135.56250026 0 0 1-27.56249944 84.37500004z" p-id="1235"></path></svg>